<?xml version="1.0" encoding="iso-8859-1"?>
<!-- Uploaded to: SVG Repo, www.svgrepo.com, Generator: SVG Repo Mixer Tools -->
<svg height="800px" width="800px" version="1.1" id="Layer_1" xmlns="http://www.w3.org/2000/svg" xmlns:xlink="http://www.w3.org/1999/xlink" 
	 viewBox="0 0 504.32 504.32" xml:space="preserve">
<g transform="translate(1 1)">
	<path style="fill:#80D6FA;" d="M498.2,327.96v136.533h-34.133v-93.867c0-15.36-0.853-29.867-1.707-42.667h1.707H498.2z
		 M39.107,174.36H37.4H3.267V37.827H37.4v93.867C37.4,147.053,38.253,161.56,39.107,174.36z M327.533,421.827v42.667h-102.4v-8.533
		V345.027V327.96h85.333l0.853,0.853l-17.92,29.013c-6.827,9.387-7.68,46.933,4.267,55.467
		C309.613,421.827,327.533,421.827,327.533,421.827z M173.933,225.56v85.333l-0.853,0.853l-29.013-17.92
		c-9.387-6.827-46.933-5.973-55.467,4.267c-8.533,10.24-8.533,29.867-8.533,29.867H37.4v-102.4h8.533h110.933H173.933z
		 M173.933,464.493v34.133H37.4v-34.133h93.867c15.36,0,29.867-0.853,42.667-1.707V464.493z M464.067,174.36v102.4h-8.533H344.6
		h-17.067v-85.333l0.853-0.853l29.013,17.92c9.387,6.827,46.933,6.827,55.467-4.267c8.533-11.947,8.533-29.867,8.533-29.867H464.067
		z M276.333,46.36v110.933v17.067H191l-0.853-0.853l17.92-29.013c6.827-9.387,6.827-46.933-4.267-55.467
		c-11.947-8.533-29.867-8.533-29.867-8.533V37.827h102.4V46.36z M464.067,3.693v34.133H370.2c-15.36,0-29.867,0.853-42.667,1.707
		v-1.707V3.693H464.067z"/>
	<path style="fill:#FFD0A1;" d="M421.4,174.36c0,0-0.853,17.92-8.533,29.867c-8.533,11.947-46.08,11.093-55.467,4.267l-29.013-17.92
		l-52.053-33.28V46.36c0,0,21.333-4.267,51.2-6.827c12.8-0.853,27.307-1.707,42.667-1.707h93.867c9.387,0,17.067,7.68,17.067,17.067
		s-7.68,17.067-17.067,17.067h8.533c9.387,0,17.067,7.68,17.067,17.067s-7.68,17.067-17.067,17.067h8.533
		c9.387,0,17.067,7.68,17.067,17.067s-7.68,17.067-17.067,17.067H472.6c9.387,0,17.067,7.68,17.067,17.067
		s-7.68,17.067-17.067,17.067h-8.533H421.4z M80.067,327.96c0,0,0.853-19.627,8.533-29.867c7.68-10.24,46.08-11.093,55.467-4.267
		l29.013,17.92l52.053,33.28V455.96c0,0-21.333,4.267-51.2,6.827c-12.8,0.853-27.307,1.707-42.667,1.707H37.4
		c-9.387,0-17.067-7.68-17.067-17.067s7.68-17.067,17.067-17.067h-8.533c-9.387,0-17.067-7.68-17.067-17.067
		c0-9.387,7.68-17.067,17.067-17.067h-8.533c-9.387,0-17.067-7.68-17.067-17.067s7.68-17.067,17.067-17.067h8.533
		c-9.387,0-17.067-7.68-17.067-17.067s7.68-17.067,17.067-17.067H37.4H80.067z M173.933,80.493c0,0,17.92,0.853,29.867,8.533
		c11.947,8.533,11.093,46.08,4.267,55.467l-17.92,29.013l-33.28,52.053H45.933c0,0-4.267-21.333-6.827-51.2
		c-0.853-12.8-1.707-27.307-1.707-42.667V37.827c0-9.387,7.68-17.067,17.067-17.067s17.067,7.68,17.067,17.067v-8.533
		c0-9.387,7.68-17.067,17.067-17.067s17.067,7.68,17.067,17.067V20.76c0-9.387,7.68-17.067,17.067-17.067S139.8,11.373,139.8,20.76
		v8.533c0-9.387,7.68-17.067,17.067-17.067s17.067,7.68,17.067,17.067v8.533V80.493z M327.533,421.827c0,0-17.92-0.853-29.867-8.533
		c-11.947-7.68-11.093-46.08-4.267-55.467l17.92-29.013l33.28-52.053h110.933c0,0,4.267,21.333,6.827,51.2
		c0.853,12.8,1.707,27.307,1.707,42.667v93.867c0,9.387-7.68,17.067-17.067,17.067s-17.067-7.68-17.067-17.067v8.533
		c0,9.387-7.68,17.067-17.067,17.067s-17.067-7.68-17.067-17.067v8.533c0,9.387-7.68,17.067-17.067,17.067
		c-9.387,0-17.067-7.68-17.067-17.067v-8.533c0,9.387-7.68,17.067-17.067,17.067s-17.067-7.68-17.067-17.067v-8.533V421.827z"/>
</g>
<path style="fill:#51565F;" d="M379.733,503.893c-9.387,0-17.067-5.973-19.627-13.653c-3.413,3.413-8.533,5.12-14.507,5.12
	c-11.947,0-21.333-9.387-21.333-21.333v-102.4c0-2.56,1.707-4.267,4.267-4.267s4.267,1.707,4.267,4.267v102.4
	c0,6.827,5.973,12.8,12.8,12.8s12.8-5.973,12.8-12.8c0-2.56,1.707-4.267,4.267-4.267s4.267,1.707,4.267,4.267v8.533
	c0,6.827,5.973,12.8,12.8,12.8c6.827,0,12.8-5.973,12.8-12.8v-8.533c0-2.56,1.707-4.267,4.267-4.267s4.267,1.707,4.267,4.267
	c0,6.827,5.973,12.8,12.8,12.8s12.8-5.973,12.8-12.8v-8.533c0-2.56,1.707-4.267,4.267-4.267s4.267,1.707,4.267,4.267
	c0,6.827,5.973,12.8,12.8,12.8s12.8-5.973,12.8-12.8v-93.867c0-41.813-5.973-78.507-7.68-89.6H348.16l-50.347,79.36
	c-5.12,7.68-5.973,39.253,4.267,49.493c1.707,1.707,1.707,4.267,0,5.973c-1.707,1.707-4.267,1.707-5.973,0
	c-13.653-13.653-11.947-50.347-5.12-60.587l46.933-74.24h-9.387c-2.56,0-4.267-1.707-4.267-4.267v-51.2
	c0-2.56,1.707-4.267,4.267-4.267S332.8,224,332.8,226.56v46.933h128v-64c0-2.56,1.707-4.267,4.267-4.267s4.267,1.707,4.267,4.267
	v68.267c0,2.56-1.707,4.267-4.267,4.267h-3.413c1.707,7.68,3.413,23.04,5.12,42.667H499.2c2.56,0,4.267,1.707,4.267,4.267
	c0,2.56-1.707,4.267-4.267,4.267h-31.573c0.853,11.947,1.707,24.747,1.707,38.4v89.6H499.2c2.56,0,4.267,1.707,4.267,4.267
	c0,2.56-1.707,4.267-4.267,4.267h-29.867c-1.707,9.387-10.24,17.067-21.333,17.067c-5.12,0-10.24-1.707-14.507-5.12
	c-3.413,8.533-11.093,13.653-19.627,13.653c-5.12,0-10.24-1.707-14.507-5.12C396.8,497.92,389.12,503.893,379.733,503.893z
	 M174.933,503.893c-2.56,0-4.267-1.707-4.267-4.267v-31.573c-11.947,0.853-24.747,1.707-38.4,1.707h-89.6v29.867
	c0,2.56-1.707,4.267-4.267,4.267s-4.267-1.707-4.267-4.267V469.76c-9.387-1.707-17.067-10.24-17.067-21.333
	c0-5.12,1.707-10.24,5.12-14.507c-8.533-3.413-13.653-11.093-13.653-19.627c0-5.12,1.707-10.24,5.12-14.507
	C5.12,396.373,0,388.693,0,380.16c0-8.533,5.973-17.067,13.653-19.627c-3.413-3.413-5.12-8.533-5.12-14.507
	c0-11.947,9.387-21.333,21.333-21.333h102.4c2.56,0,4.267,1.707,4.267,4.267c0,2.56-1.707,4.267-4.267,4.267h-102.4
	c-6.827,0-12.8,5.973-12.8,12.8s5.973,12.8,12.8,12.8c2.56,0,4.267,1.707,4.267,4.267c0,2.56-1.707,4.267-4.267,4.267h-8.533
	c-6.827,0-12.8,5.973-12.8,12.8c0,6.827,5.973,12.8,12.8,12.8h8.533c2.56,0,4.267,1.707,4.267,4.267s-1.707,4.267-4.267,4.267
	c-6.827,0-12.8,5.973-12.8,12.8c0,6.827,5.973,12.8,12.8,12.8H38.4c2.56,0,4.267,1.707,4.267,4.267s-1.707,4.267-4.267,4.267
	c-6.827,0-12.8,5.973-12.8,12.8c0,6.827,5.973,12.8,12.8,12.8h93.867c41.813,0,78.507-5.973,89.6-7.68v-104.96l-79.36-50.347
	c-7.68-5.12-39.253-5.973-49.493,4.267c-1.707,1.707-4.267,1.707-5.973,0c-1.707-1.707-1.707-4.267,0-5.973
	c13.653-13.653,50.347-11.947,60.587-5.12l74.24,46.933v-9.387c0-2.56,1.707-4.267,4.267-4.267h51.2c2.56,0,4.267,1.707,4.267,4.267
	c0,2.56-1.707,4.267-4.267,4.267H230.4v128h64c2.56,0,4.267,1.707,4.267,4.267c0,2.56-1.707,4.267-4.267,4.267h-68.267
	c-2.56,0-4.267-1.707-4.267-4.267v-3.413c-7.68,1.707-23.04,3.413-42.667,5.12v32.427
	C179.2,502.187,177.493,503.893,174.933,503.893z M38.4,299.093c-2.56,0-4.267-1.707-4.267-4.267V226.56
	c0-2.56,1.707-4.267,4.267-4.267h3.413c-1.707-7.68-3.413-23.04-5.12-42.667H4.267c-2.56,0-4.267-1.707-4.267-4.267
	c0-2.56,1.707-4.267,4.267-4.267H35.84c-0.853-11.947-1.707-24.747-1.707-38.4v-89.6H4.267C1.707,43.093,0,41.387,0,38.827
	s1.707-4.267,4.267-4.267h30.72c1.707-9.387,10.24-17.067,20.48-17.067c5.12,0,10.24,1.707,14.507,5.12
	C73.387,14.08,81.067,8.96,89.6,8.96c5.12,0,10.24,1.707,14.507,5.12C107.52,5.547,115.2,0.427,123.733,0.427
	S140.8,6.4,143.36,14.08c3.413-3.413,8.533-5.12,14.507-5.12c11.947,0,21.333,9.387,21.333,21.333v102.4
	c0,2.56-1.707,4.267-4.267,4.267c-2.56,0-4.267-1.707-4.267-4.267v-102.4c0-6.827-5.973-12.8-12.8-12.8
	c-6.827,0-12.8,5.973-12.8,12.8c0,2.56-1.707,4.267-4.267,4.267c-2.56,0-4.267-1.707-4.267-4.267V21.76
	c0-6.827-5.973-12.8-12.8-12.8c-6.827,0-12.8,5.973-12.8,12.8v8.533c0,2.56-1.707,4.267-4.267,4.267s-4.267-1.707-4.267-4.267
	c0-6.827-5.973-12.8-12.8-12.8s-12.8,5.973-12.8,12.8v8.533c0,2.56-1.707,4.267-4.267,4.267c-2.56,0-4.267-1.707-4.267-4.267
	c0-6.827-5.973-12.8-12.8-12.8s-12.8,5.973-12.8,12.8v93.867c0,41.813,5.973,78.507,7.68,89.6h104.96l50.347-79.36
	c5.12-7.68,5.973-39.253-4.267-49.493c-1.707-1.707-1.707-4.267,0-5.973c1.707-1.707,4.267-1.707,5.973,0
	c13.653,13.653,11.947,50.347,5.12,60.587l-46.933,74.24h9.387c2.56,0,4.267,1.707,4.267,4.267v51.2c0,2.56-1.707,4.267-4.267,4.267
	s-4.267-1.707-4.267-4.267v-46.933h-128v64C42.667,297.387,40.96,299.093,38.4,299.093z M382.293,218.027
	c-11.093,0-21.333-1.707-25.6-5.12l-74.24-46.933v9.387c0,2.56-1.707,4.267-4.267,4.267h-51.2c-2.56,0-4.267-1.707-4.267-4.267
	c0-2.56,1.707-4.267,4.267-4.267h46.933v-128h-64c-2.56,0-4.267-1.707-4.267-4.267s1.707-4.267,4.267-4.267h68.267
	c2.56,0,4.267,1.707,4.267,4.267v3.413c7.68-1.707,23.04-3.413,42.667-5.12V4.693c0-2.56,1.707-4.267,4.267-4.267
	s4.267,1.707,4.267,4.267v31.573c11.947-0.853,24.747-1.707,38.4-1.707h89.6V4.693c0-2.56,1.707-4.267,4.267-4.267
	s4.267,1.707,4.267,4.267v30.72c9.387,1.707,17.067,10.24,17.067,20.48c0,5.12-1.707,10.24-5.12,14.507
	c8.533,3.413,13.653,11.093,13.653,19.627c0,5.12-1.707,10.24-5.12,14.507c8.533,3.413,13.653,11.093,13.653,19.627
	s-5.973,17.067-13.653,19.627c3.413,3.413,5.12,8.533,5.12,14.507c0,11.947-9.387,21.333-21.333,21.333h-102.4
	c-2.56,0-4.267-1.707-4.267-4.267c0-2.56,1.707-4.267,4.267-4.267h102.4c6.827,0,12.8-5.973,12.8-12.8c0-6.827-5.973-12.8-12.8-12.8
	c-2.56,0-4.267-1.707-4.267-4.267s1.707-4.267,4.267-4.267h8.533c6.827,0,12.8-5.973,12.8-12.8c0-6.827-5.973-12.8-12.8-12.8h-8.533
	c-2.56,0-4.267-1.707-4.267-4.267c0-2.56,1.707-4.267,4.267-4.267c6.827,0,12.8-5.973,12.8-12.8c0-6.827-5.973-12.8-12.8-12.8
	h-8.533c-2.56,0-4.267-1.707-4.267-4.267s1.707-4.267,4.267-4.267c6.827,0,12.8-5.973,12.8-12.8s-5.973-12.8-12.8-12.8h-93.867
	c-41.813,0-78.507,5.973-89.6,7.68v104.96l79.36,50.347c7.68,5.12,39.253,5.973,49.493-4.267c1.707-1.707,4.267-1.707,5.973,0
	c1.707,1.707,1.707,4.267,0,5.973C408.747,215.467,395.093,218.027,382.293,218.027z"/>
</svg>